# xmcd
#
# Track frame offsets: 
#        150
#        17692
#        37025
#        58545
#        77780
#        97512
#        116910
#        133912
#        146502
#        164115
#        184355
#        199215
#
# Disc length: 2926 seconds
#
# Revision: 3
# Processed by: cddbd v1.5.2PL0 Copyright (c) Steve Scherf et al.
# Submitted via: ExactAudioCopy v0.99pb4
#
DISCID=ad0b6c0c
DTITLE=Various Artist - Body Talk - Hearts Together
DYEAR=1998
DGENRE=Easy Listening
TTITLE0=Pointer Sisters - Slow Hand
TTITLE1=Daryl Hall And John Oates - Say It Isn't So
TTITLE2=Mr. Mister - Broken Wings
TTITLE3=Billy Vera And The Beaters - At This Moment
TTITLE4=Starship - Sara
TTITLE5=Air Supply - The One That You Love
TTITLE6=Gladys Knight And The Pips - Best Thing That Ever Happened To 
TTITLE6=Me
TTITLE7=Climax - Precious And Few
TTITLE8=Captain And Tennille - Do That To Me One More Time
TTITLE9=Diana Ross And Lionel Richie - Endless Love
TTITLE10=Nilsson - Without You
TTITLE11=Taylor Dayne - I'll Always Love You
EXTD=
EXTT0=
EXTT1=
EXTT2=
EXTT3=
EXTT4=
EXTT5=
EXTT6=
EXTT7=
EXTT8=
EXTT9=
EXTT10=
EXTT11=
PLAYORDER=
